<svg version="1.1" id="Layer_1" xmlns="http://www.w3.org/2000/svg" xmlns:xlink="http://www.w3.org/1999/xlink" x="0px" y="0px"
	 width="100%" viewBox="0 0 524 96" enable-background="new 0 0 524 96" xml:space="preserve">
<path fill="#010101" opacity="1.000000" stroke="none" 
	d="
M382.000000,97.000000 
	C254.666687,97.000000 127.833366,97.000000 1.000034,97.000000 
	C1.000023,65.000015 1.000023,33.000038 1.000011,1.000043 
	C175.666626,1.000028 350.333252,1.000028 524.999878,1.000014 
	C524.999939,32.999958 524.999939,64.999916 525.000000,96.999939 
	C477.500000,97.000000 430.000000,97.000000 382.000000,97.000000 
M36.665798,54.499496 
	C36.665798,62.298069 36.665798,70.096642 36.665798,77.920288 
	C59.473812,77.920288 81.861023,77.920288 104.328369,77.920288 
	C104.328369,57.163609 104.328369,36.742233 104.328369,16.279961 
	C81.695084,16.279961 59.310009,16.279961 36.665833,16.279961 
	C36.665833,28.876169 36.665833,41.187832 36.665798,54.499496 
M330.984467,46.501396 
	C330.984467,53.907040 330.984467,61.312679 330.984467,68.483505 
	C334.086884,68.483505 336.353790,68.483505 339.124939,68.483505 
	C339.124939,60.191833 339.124939,52.186531 339.124939,42.914856 
	C344.160583,50.696075 348.841705,57.129105 352.629822,64.050850 
	C355.374908,69.066719 358.872375,69.528877 363.420044,68.326523 
	C363.420044,55.084866 363.420044,42.180832 363.420044,29.286057 
	C360.781006,29.286057 358.501923,29.286057 355.761505,29.286057 
	C355.761505,33.596958 355.761505,37.719688 355.761505,41.842419 
	C355.761505,45.879738 355.761505,49.917053 355.761505,55.333851 
	C350.722839,47.576843 346.108032,41.269451 342.385376,34.473385 
	C339.708527,29.586510 336.465790,27.928104 330.984467,29.645819 
	C330.984467,34.892208 330.984467,40.197182 330.984467,46.501396 
M424.975525,69.212639 
	C436.950775,67.580223 444.807281,57.112408 442.844971,45.403801 
	C440.932220,33.990685 429.899170,26.556091 418.488983,28.991581 
	C408.938843,31.030050 402.137695,40.665157 403.063293,51.052402 
	C403.879211,60.208843 411.980072,70.125626 424.975525,69.212639 
M395.908508,39.453144 
	C395.189392,33.209377 393.202362,30.365101 387.388977,29.603428 
	C382.412567,28.951416 377.282990,29.468473 372.417084,29.468473 
	C372.417084,42.726128 372.417084,55.607044 372.417084,68.703400 
	C377.737091,68.703400 382.720062,68.952858 387.667480,68.639999 
	C393.793243,68.252617 397.954590,65.040756 398.952332,60.567463 
	C400.316376,54.451946 398.524750,51.109077 392.494354,47.822109 
	C393.635559,45.264973 394.754944,42.756756 395.908508,39.453144 
M146.348419,66.380714 
	C149.441772,70.797737 153.573593,68.181915 158.206741,68.706955 
	C153.599823,63.033184 149.673279,58.197357 145.695465,53.298367 
	C146.482117,52.708611 146.846939,52.376926 147.262878,52.132072 
	C152.674377,48.946457 154.814682,44.708206 153.927811,38.899849 
	C153.180145,34.003201 149.490402,30.061087 143.738373,29.442566 
	C138.359894,28.864212 132.870331,29.318851 127.275078,29.318851 
	C127.275078,42.509525 127.275078,55.419579 127.275078,68.498535 
	C129.905380,68.498535 132.293808,68.498535 135.162399,68.498535 
	C135.162399,63.521584 135.162399,58.805233 135.162399,54.088882 
	C135.542618,53.913364 135.922836,53.737850 136.303055,53.562332 
	C139.514557,57.624477 142.726074,61.686623 146.348419,66.380714 
M293.980865,58.480698 
	C293.980865,61.893280 293.980865,65.305862 293.980865,68.479782 
	C297.026855,68.479782 299.291168,68.479782 301.654480,68.479782 
	C301.654480,55.280792 301.654480,42.386547 301.654480,29.356125 
	C299.014679,29.356125 296.635620,29.356125 293.889465,29.356125 
	C293.889465,34.720581 293.889465,39.817917 293.889465,44.839104 
	C288.815887,44.839104 284.123383,44.839104 278.994080,44.839104 
	C278.994080,39.397743 278.994080,34.330711 278.994080,29.283018 
	C276.273834,29.283018 274.003937,29.283018 271.561462,29.283018 
	C271.561462,42.506531 271.561462,55.523159 271.561462,68.560104 
	C274.200562,68.560104 276.468567,68.560104 279.236877,68.560104 
	C279.236877,63.119667 279.236877,57.883297 279.236877,52.482002 
	C284.362427,52.482002 288.984955,52.482002 293.980865,52.482002 
	C293.980865,54.191696 293.980865,55.836781 293.980865,58.480698 
M480.455688,32.680744 
	C481.037994,31.602421 481.620331,30.524097 482.096039,29.643162 
	C471.487610,25.723961 470.207275,35.521469 465.381653,40.410473 
	C460.615784,35.570122 459.000153,25.841551 448.342468,29.675728 
	C451.004974,33.605976 453.286530,37.882420 456.429871,41.385574 
	C460.417328,45.829494 459.875519,49.244797 456.206848,53.564594 
	C452.341644,58.115822 449.266815,63.338261 445.569458,68.666946 
	C455.103149,68.919037 455.095520,68.913704 460.044647,61.832836 
	C461.748138,59.395615 463.500427,56.992481 465.377808,54.367764 
	C467.525513,57.375465 469.454315,60.076134 471.382599,62.777164 
	C476.190063,69.511223 476.189972,69.511299 484.935699,68.187302 
	C480.012085,61.183132 475.184845,54.316090 470.303345,47.371815 
	C473.604523,42.594891 476.812134,37.953323 480.455688,32.680744 
M208.704285,29.080923 
	C207.467056,29.857342 205.918106,30.390839 205.074188,31.473761 
	C204.094193,32.731297 203.721039,34.466129 203.104584,36.001865 
	C198.769653,46.801044 194.439911,57.602306 189.786942,69.204742 
	C193.610733,67.744293 198.245987,71.186562 199.417572,66.020607 
	C200.694107,60.391857 203.856354,58.958118 209.003296,59.764568 
	C210.628708,60.019253 212.444168,59.432323 213.960846,59.907112 
	C215.538177,60.400890 217.551910,61.388969 218.175400,62.721924 
	C221.248489,69.291817 221.107971,69.357544 229.049332,68.285210 
	C223.998199,55.809860 219.060364,43.389565 213.832397,31.092613 
	C213.371765,30.009148 211.013763,29.732338 208.704285,29.080923 
M183.637344,61.698601 
	C179.527466,61.698601 175.417572,61.698601 171.302277,61.698601 
	C171.302277,58.316437 171.302277,55.402512 171.302277,52.221916 
	C175.897018,52.221916 180.208511,52.221916 184.679459,52.221916 
	C184.679459,49.858646 184.679459,47.773262 184.679459,45.172565 
	C180.073532,45.172565 175.668488,45.172565 171.226471,45.172565 
	C171.226471,41.895634 171.226471,39.139816 171.226471,35.919361 
	C175.984116,35.919361 180.552963,35.919361 185.022797,35.919361 
	C185.022797,33.369579 185.022797,31.297596 185.022797,29.395302 
	C177.586624,29.395302 170.491257,29.395302 163.406189,29.395302 
	C163.406189,42.614189 163.406189,55.515575 163.406189,68.527756 
	C170.792328,68.527756 177.864136,68.527756 185.650742,68.527756 
	C185.217880,66.037819 184.843826,63.886185 183.637344,61.698601 
M256.030060,61.204353 
	C248.961655,62.092430 243.752823,59.917889 241.036789,54.945068 
	C238.701614,50.669575 239.178787,44.445518 242.423370,40.969032 
	C248.112885,34.872845 254.835571,35.211281 261.974548,38.656540 
	C263.110748,36.369701 264.099060,34.380520 265.063843,32.438686 
	C255.317642,25.902271 242.138718,27.825748 235.275375,36.528217 
	C228.855545,44.668308 229.563614,56.005703 236.940033,63.182468 
	C244.503464,70.541199 257.664886,71.465744 265.031616,65.038261 
	C263.957703,63.090679 262.868774,61.115852 261.899780,59.358585 
	C259.941925,60.029373 258.407806,60.554981 256.030060,61.204353 
M320.309998,31.988970 
	C319.254425,25.651419 315.082306,30.577003 312.514282,29.167568 
	C312.514282,42.696537 312.514282,55.568111 312.514282,68.496185 
	C315.210236,68.496185 317.596832,68.496185 320.310516,68.496185 
	C320.310516,56.437981 320.310516,44.670341 320.309998,31.988970 
z"/>
<path fill="#FBFBFB" opacity="1.000000" stroke="none" 
	d="
M36.665817,53.999496 
	C36.665833,41.187832 36.665833,28.876169 36.665833,16.279961 
	C59.310009,16.279961 81.695084,16.279961 104.328369,16.279961 
	C104.328369,36.742233 104.328369,57.163609 104.328369,77.920288 
	C81.861023,77.920288 59.473812,77.920288 36.665798,77.920288 
	C36.665798,70.096642 36.665798,62.298069 36.665817,53.999496 
M55.621571,65.193031 
	C55.711578,64.800995 55.801582,64.408966 56.064644,63.095680 
	C56.064644,58.393509 56.064644,53.691338 56.064644,48.057484 
	C61.318668,52.599102 65.675522,56.365200 70.120918,60.207829 
	C74.611794,56.325504 78.929436,52.592941 83.982437,48.224670 
	C83.982437,54.497475 83.982437,59.869717 83.982437,65.098900 
	C86.753159,65.098900 89.009949,65.098900 91.309914,65.098900 
	C91.309914,54.058346 91.309914,43.326111 91.309914,31.821268 
	C83.851059,38.274422 76.924706,44.266876 70.153793,50.124844 
	C63.841774,44.783913 58.018955,39.856918 51.910213,34.314190 
	C51.076538,33.609940 50.242863,32.905689 49.006512,31.861279 
	C49.006512,33.232964 49.006512,34.116302 48.787651,35.914669 
	C48.860676,45.276733 48.933701,54.638798 48.928532,64.664154 
	C49.292152,64.812317 49.655773,64.960472 50.818241,65.370918 
	C52.206654,65.288231 53.595062,65.205544 55.621571,65.193031 
z"/>
<path fill="#F6F6F6" opacity="1.000000" stroke="none" 
	d="
M330.984467,46.001778 
	C330.984467,40.197182 330.984467,34.892208 330.984467,29.645819 
	C336.465790,27.928104 339.708527,29.586510 342.385376,34.473385 
	C346.108032,41.269451 350.722839,47.576843 355.761505,55.333851 
	C355.761505,49.917053 355.761505,45.879738 355.761505,41.842419 
	C355.761505,37.719688 355.761505,33.596958 355.761505,29.286057 
	C358.501923,29.286057 360.781006,29.286057 363.420044,29.286057 
	C363.420044,42.180832 363.420044,55.084866 363.420044,68.326523 
	C358.872375,69.528877 355.374908,69.066719 352.629822,64.050850 
	C348.841705,57.129105 344.160583,50.696075 339.124939,42.914856 
	C339.124939,52.186531 339.124939,60.191833 339.124939,68.483505 
	C336.353790,68.483505 334.086884,68.483505 330.984467,68.483505 
	C330.984467,61.312679 330.984467,53.907040 330.984467,46.001778 
z"/>
<path fill="#F7F7F7" opacity="1.000000" stroke="none" 
	d="
M424.579590,69.258362 
	C411.980072,70.125626 403.879211,60.208843 403.063293,51.052402 
	C402.137695,40.665157 408.938843,31.030050 418.488983,28.991581 
	C429.899170,26.556091 440.932220,33.990685 442.844971,45.403801 
	C444.807281,57.112408 436.950775,67.580223 424.579590,69.258362 
M432.826660,55.896378 
	C435.877319,48.323162 434.199402,40.853909 428.736542,37.689064 
	C423.414154,34.605618 417.021667,36.013706 413.800903,40.978977 
	C409.923767,46.956261 411.358124,56.215794 416.726196,59.863121 
	C421.951233,63.413250 427.951111,62.135406 432.826660,55.896378 
z"/>
<path fill="#F6F6F6" opacity="1.000000" stroke="none" 
	d="
M395.891418,39.850838 
	C394.754944,42.756756 393.635559,45.264973 392.494354,47.822109 
	C398.524750,51.109077 400.316376,54.451946 398.952332,60.567463 
	C397.954590,65.040756 393.793243,68.252617 387.667480,68.639999 
	C382.720062,68.952858 377.737091,68.703400 372.417084,68.703400 
	C372.417084,55.607044 372.417084,42.726128 372.417084,29.468473 
	C377.282990,29.468473 382.412567,28.951416 387.388977,29.603428 
	C393.202362,30.365101 395.189392,33.209377 395.891418,39.850838 
M380.009460,59.450939 
	C379.976624,64.940201 384.181335,62.229675 386.003693,61.888691 
	C387.866058,61.540211 390.836853,58.913609 390.653259,57.682278 
	C390.349030,55.641895 388.225433,53.358181 386.262665,52.243137 
	C384.702942,51.357063 382.237885,52.064583 380.009216,52.064583 
	C380.009216,54.546413 380.009216,56.517654 380.009460,59.450939 
M387.786469,38.047153 
	C385.454193,36.908710 383.121948,35.770264 380.198425,34.343220 
	C380.198425,38.644558 380.198425,41.735485 380.198425,44.818703 
	C386.647583,45.057716 387.648193,44.269974 387.786469,38.047153 
z"/>
<path fill="#F6F6F6" opacity="1.000000" stroke="none" 
	d="
M146.143005,66.064743 
	C142.726074,61.686623 139.514557,57.624477 136.303055,53.562332 
	C135.922836,53.737850 135.542618,53.913364 135.162399,54.088882 
	C135.162399,58.805233 135.162399,63.521584 135.162399,68.498535 
	C132.293808,68.498535 129.905380,68.498535 127.275078,68.498535 
	C127.275078,55.419579 127.275078,42.509525 127.275078,29.318851 
	C132.870331,29.318851 138.359894,28.864212 143.738373,29.442566 
	C149.490402,30.061087 153.180145,34.003201 153.927811,38.899849 
	C154.814682,44.708206 152.674377,48.946457 147.262878,52.132072 
	C146.846939,52.376926 146.482117,52.708611 145.695465,53.298367 
	C149.673279,58.197357 153.599823,63.033184 158.206741,68.706955 
	C153.573593,68.181915 149.441772,70.797737 146.143005,66.064743 
M143.152740,46.062599 
	C143.791153,43.616131 145.700424,39.808609 144.821121,38.987579 
	C142.515366,36.834641 138.993454,35.984165 135.315460,34.325745 
	C135.315460,39.639942 135.315460,43.331623 135.315460,47.428272 
	C137.911713,47.049377 140.153214,46.722260 143.152740,46.062599 
z"/>
<path fill="#F4F4F4" opacity="1.000000" stroke="none" 
	d="
M293.980865,57.981281 
	C293.980865,55.836781 293.980865,54.191696 293.980865,52.482002 
	C288.984955,52.482002 284.362427,52.482002 279.236877,52.482002 
	C279.236877,57.883297 279.236877,63.119667 279.236877,68.560104 
	C276.468567,68.560104 274.200562,68.560104 271.561462,68.560104 
	C271.561462,55.523159 271.561462,42.506531 271.561462,29.283018 
	C274.003937,29.283018 276.273834,29.283018 278.994080,29.283018 
	C278.994080,34.330711 278.994080,39.397743 278.994080,44.839104 
	C284.123383,44.839104 288.815887,44.839104 293.889465,44.839104 
	C293.889465,39.817917 293.889465,34.720581 293.889465,29.356125 
	C296.635620,29.356125 299.014679,29.356125 301.654480,29.356125 
	C301.654480,42.386547 301.654480,55.280792 301.654480,68.479782 
	C299.291168,68.479782 297.026855,68.479782 293.980865,68.479782 
	C293.980865,65.305862 293.980865,61.893280 293.980865,57.981281 
z"/>
<path fill="#F5F5F5" opacity="1.000000" stroke="none" 
	d="
M480.237732,32.996250 
	C476.812134,37.953323 473.604523,42.594891 470.303345,47.371815 
	C475.184845,54.316090 480.012085,61.183132 484.935699,68.187302 
	C476.189972,69.511299 476.190063,69.511223 471.382599,62.777164 
	C469.454315,60.076134 467.525513,57.375465 465.377808,54.367764 
	C463.500427,56.992481 461.748138,59.395615 460.044647,61.832836 
	C455.095520,68.913704 455.103149,68.919037 445.569458,68.666946 
	C449.266815,63.338261 452.341644,58.115822 456.206848,53.564594 
	C459.875519,49.244797 460.417328,45.829494 456.429871,41.385574 
	C453.286530,37.882420 451.004974,33.605976 448.342468,29.675728 
	C459.000153,25.841551 460.615784,35.570122 465.381653,40.410473 
	C470.207275,35.521469 471.487610,25.723961 482.096039,29.643162 
	C481.620331,30.524097 481.037994,31.602421 480.237732,32.996250 
z"/>
<path fill="#F5F5F5" opacity="1.000000" stroke="none" 
	d="
M209.120651,29.080894 
	C211.013763,29.732338 213.371765,30.009148 213.832397,31.092613 
	C219.060364,43.389565 223.998199,55.809860 229.049332,68.285210 
	C221.107971,69.357544 221.248489,69.291817 218.175400,62.721924 
	C217.551910,61.388969 215.538177,60.400890 213.960846,59.907112 
	C212.444168,59.432323 210.628708,60.019253 209.003296,59.764568 
	C203.856354,58.958118 200.694107,60.391857 199.417572,66.020607 
	C198.245987,71.186562 193.610733,67.744293 189.786942,69.204742 
	C194.439911,57.602306 198.769653,46.801044 203.104584,36.001865 
	C203.721039,34.466129 204.094193,32.731297 205.074188,31.473761 
	C205.918106,30.390839 207.467056,29.857342 209.120651,29.080894 
M210.393341,52.843224 
	C211.599945,52.757336 212.806549,52.671444 214.471710,52.552910 
	C212.759018,48.185165 211.268738,44.384636 209.542358,39.981976 
	C207.810181,44.510914 206.314362,48.421829 204.623398,52.842999 
	C206.633865,52.842999 208.077316,52.842999 210.393341,52.843224 
z"/>
<path fill="#F5F5F5" opacity="1.000000" stroke="none" 
	d="
M184.053558,61.716576 
	C184.843826,63.886185 185.217880,66.037819 185.650742,68.527756 
	C177.864136,68.527756 170.792328,68.527756 163.406189,68.527756 
	C163.406189,55.515575 163.406189,42.614189 163.406189,29.395302 
	C170.491257,29.395302 177.586624,29.395302 185.022797,29.395302 
	C185.022797,31.297596 185.022797,33.369579 185.022797,35.919361 
	C180.552963,35.919361 175.984116,35.919361 171.226471,35.919361 
	C171.226471,39.139816 171.226471,41.895634 171.226471,45.172565 
	C175.668488,45.172565 180.073532,45.172565 184.679459,45.172565 
	C184.679459,47.773262 184.679459,49.858646 184.679459,52.221916 
	C180.208511,52.221916 175.897018,52.221916 171.302277,52.221916 
	C171.302277,55.402512 171.302277,58.316437 171.302277,61.698601 
	C175.417572,61.698601 179.527466,61.698601 184.053558,61.716576 
z"/>
<path fill="#F6F6F6" opacity="1.000000" stroke="none" 
	d="
M256.451874,61.142471 
	C258.407806,60.554981 259.941925,60.029373 261.899780,59.358585 
	C262.868774,61.115852 263.957703,63.090679 265.031616,65.038261 
	C257.664886,71.465744 244.503464,70.541199 236.940033,63.182468 
	C229.563614,56.005703 228.855545,44.668308 235.275375,36.528217 
	C242.138718,27.825748 255.317642,25.902271 265.063843,32.438686 
	C264.099060,34.380520 263.110748,36.369701 261.974548,38.656540 
	C254.835571,35.211281 248.112885,34.872845 242.423370,40.969032 
	C239.178787,44.445518 238.701614,50.669575 241.036789,54.945068 
	C243.752823,59.917889 248.961655,62.092430 256.451874,61.142471 
z"/>
<path fill="#F2F2F2" opacity="1.000000" stroke="none" 
	d="
M320.310242,32.445835 
	C320.310516,44.670341 320.310516,56.437981 320.310516,68.496185 
	C317.596832,68.496185 315.210236,68.496185 312.514282,68.496185 
	C312.514282,55.568111 312.514282,42.696537 312.514282,29.167568 
	C315.082306,30.577003 319.254425,25.651419 320.310242,32.445835 
z"/>
<path fill="#0A0A0A" opacity="1.000000" stroke="none" 
	d="
M49.006721,64.000862 
	C48.933701,54.638798 48.860676,45.276733 49.295975,35.458054 
	C50.601578,34.977604 51.398857,34.953762 52.196136,34.929924 
	C58.018955,39.856918 63.841774,44.783913 70.153793,50.124844 
	C76.924706,44.266876 83.851059,38.274422 91.309914,31.821268 
	C91.309914,43.326111 91.309914,54.058346 91.309914,65.098900 
	C89.009949,65.098900 86.753159,65.098900 83.982437,65.098900 
	C83.982437,59.869717 83.982437,54.497475 83.982437,48.224670 
	C78.929436,52.592941 74.611794,56.325504 70.120918,60.207829 
	C65.675522,56.365200 61.318668,52.599102 56.064644,48.057484 
	C56.064644,53.691338 56.064644,58.393509 55.769478,63.687199 
	C55.234974,64.516068 55.071365,64.797447 54.983475,65.122849 
	C53.595062,65.205544 52.206654,65.288231 50.309967,65.005013 
	C49.536701,64.426361 49.271713,64.213608 49.006721,64.000862 
z"/>
<path fill="#010101" opacity="1.000000" stroke="none" 
	d="
M52.053177,34.622055 
	C51.398857,34.953762 50.601578,34.977604 49.405403,35.000542 
	C49.006512,34.116302 49.006512,33.232964 49.006512,31.861279 
	C50.242863,32.905689 51.076538,33.609940 52.053177,34.622055 
z"/>
<path fill="#010101" opacity="1.000000" stroke="none" 
	d="
M48.967628,64.332504 
	C49.271713,64.213608 49.536701,64.426361 49.910542,64.873871 
	C49.655773,64.960472 49.292152,64.812317 48.967628,64.332504 
z"/>
<path fill="#010101" opacity="1.000000" stroke="none" 
	d="
M55.302521,65.157944 
	C55.071365,64.797447 55.234974,64.516068 55.682945,64.147827 
	C55.801582,64.408966 55.711578,64.800995 55.302521,65.157944 
z"/>
<path fill="#020202" opacity="1.000000" stroke="none" 
	d="
M432.590546,56.215500 
	C427.951111,62.135406 421.951233,63.413250 416.726196,59.863121 
	C411.358124,56.215794 409.923767,46.956261 413.800903,40.978977 
	C417.021667,36.013706 423.414154,34.605618 428.736542,37.689064 
	C434.199402,40.853909 435.877319,48.323162 432.590546,56.215500 
z"/>
<path fill="#040404" opacity="1.000000" stroke="none" 
	d="
M380.009338,58.969917 
	C380.009216,56.517654 380.009216,54.546413 380.009216,52.064583 
	C382.237885,52.064583 384.702942,51.357063 386.262665,52.243137 
	C388.225433,53.358181 390.349030,55.641895 390.653259,57.682278 
	C390.836853,58.913609 387.866058,61.540211 386.003693,61.888691 
	C384.181335,62.229675 379.976624,64.940201 380.009338,58.969917 
z"/>
<path fill="#070707" opacity="1.000000" stroke="none" 
	d="
M387.894531,38.440956 
	C387.648193,44.269974 386.647583,45.057716 380.198425,44.818703 
	C380.198425,41.735485 380.198425,38.644558 380.198425,34.343220 
	C383.121948,35.770264 385.454193,36.908710 387.894531,38.440956 
z"/>
<path fill="#030303" opacity="1.000000" stroke="none" 
	d="
M142.773727,46.228867 
	C140.153214,46.722260 137.911713,47.049377 135.315460,47.428272 
	C135.315460,43.331623 135.315460,39.639942 135.315460,34.325745 
	C138.993454,35.984165 142.515366,36.834641 144.821121,38.987579 
	C145.700424,39.808609 143.791153,43.616131 142.773727,46.228867 
z"/>
<path fill="#111111" opacity="1.000000" stroke="none" 
	d="
M209.957047,52.843109 
	C208.077316,52.842999 206.633865,52.842999 204.623398,52.842999 
	C206.314362,48.421829 207.810181,44.510914 209.542358,39.981976 
	C211.268738,44.384636 212.759018,48.185165 214.471710,52.552910 
	C212.806549,52.671444 211.599945,52.757336 209.957047,52.843109 
z"/>
</svg>